<svg xmlns="http://www.w3.org/2000/svg" viewBox="0 0 1600 900">
  <defs>
    <linearGradient id="bg" x1="0" y1="0" x2="1" y2="1">
      <stop offset="0" stop-color="#e8f8ef"/>
      <stop offset="1" stop-color="#b9ead0"/>
    </linearGradient>
    <linearGradient id="g" x1="0" y1="0" x2="1" y2="1">
      <stop offset="0" stop-color="#1f9d68"/>
      <stop offset="1" stop-color="#0e5c3b"/>
    </linearGradient>
  </defs>
  <rect width="1600" height="900" fill="url(#bg)"/>
  <g opacity=".22" stroke="#1f9d68" fill="none">
    <path d="M0 150h1600M0 300h1600M0 450h1600M0 600h1600M0 750h1600"/>
    <path d="M200 0v900M400 0v900M600 0v900M800 0v900M1000 0v900M1200 0v900M1400 0v900"/>
  </g>
  <circle cx="800" cy="450" r="220" fill="url(#g)" opacity=".96"/>
  <path d="M690 540V350h115c82 0 132 34 132 95 0 62-50 95-132 95H690zm70-57h44c41 0 62-12 62-38s-21-38-62-38h-44v76z" fill="#fff"/>
  <text x="800" y="720" font-family="Arial,Helvetica,sans-serif" font-size="68" text-anchor="middle" fill="#123d29" font-weight="700">DIGIREVIEW</text>
</svg>